<mxfile host="app.diagrams.net" modified="2023-01-23T23:31:51.012Z" agent="5.0 (X11; Ubuntu)" etag="1EEQPN-XtilEAr_KIQMn" version="20.8.10" type="github">
  <diagram name="Page-1" id="iTAS6-S8md9ugpQ0GNEl">
    <mxGraphModel dx="1372" dy="766" grid="0" gridSize="10" guides="1" tooltips="1" connect="1" arrows="1" fold="1" page="1" pageScale="1" pageWidth="827" pageHeight="1169" math="0" shadow="0">
      <root>
        <mxCell id="0" />
        <mxCell id="1" parent="0" />
        <mxCell id="M2AzcLImMA2G3Drh93Wu-64" value="" style="whiteSpace=wrap;html=1;aspect=fixed;fillStyle=auto;strokeColor=#CCCCCC;fontSize=42;fontColor=#FF3333;fillColor=default;" vertex="1" parent="1">
          <mxGeometry x="480" y="360" width="80" height="80" as="geometry" />
        </mxCell>
        <mxCell id="M2AzcLImMA2G3Drh93Wu-63" value="" style="whiteSpace=wrap;html=1;aspect=fixed;fillStyle=auto;strokeColor=#CCCCCC;fontSize=42;fontColor=#FF3333;fillColor=default;" vertex="1" parent="1">
          <mxGeometry x="400" y="360" width="80" height="80" as="geometry" />
        </mxCell>
        <mxCell id="M2AzcLImMA2G3Drh93Wu-62" value="" style="whiteSpace=wrap;html=1;aspect=fixed;fillStyle=auto;strokeColor=#CCCCCC;fontSize=42;fontColor=#FF3333;fillColor=default;" vertex="1" parent="1">
          <mxGeometry x="480" y="280" width="80" height="80" as="geometry" />
        </mxCell>
        <mxCell id="M2AzcLImMA2G3Drh93Wu-61" value="" style="whiteSpace=wrap;html=1;aspect=fixed;fillStyle=auto;strokeColor=#CCCCCC;fontSize=42;fontColor=#FF3333;fillColor=default;" vertex="1" parent="1">
          <mxGeometry x="400" y="280" width="80" height="80" as="geometry" />
        </mxCell>
        <mxCell id="M2AzcLImMA2G3Drh93Wu-60" value="" style="whiteSpace=wrap;html=1;aspect=fixed;fillStyle=auto;strokeColor=#CCCCCC;fontSize=42;fontColor=#FF3333;fillColor=default;" vertex="1" parent="1">
          <mxGeometry x="320" y="280" width="80" height="80" as="geometry" />
        </mxCell>
        <mxCell id="M2AzcLImMA2G3Drh93Wu-59" value="" style="whiteSpace=wrap;html=1;aspect=fixed;fillStyle=auto;strokeColor=#CCCCCC;fontSize=42;fontColor=#FF3333;fillColor=default;" vertex="1" parent="1">
          <mxGeometry x="400" y="200" width="80" height="80" as="geometry" />
        </mxCell>
        <mxCell id="M2AzcLImMA2G3Drh93Wu-58" value="" style="whiteSpace=wrap;html=1;aspect=fixed;fillStyle=auto;strokeColor=#CCCCCC;fontSize=42;fontColor=#FF3333;fillColor=default;" vertex="1" parent="1">
          <mxGeometry x="320" y="200" width="80" height="80" as="geometry" />
        </mxCell>
        <mxCell id="M2AzcLImMA2G3Drh93Wu-57" value="" style="whiteSpace=wrap;html=1;aspect=fixed;fillStyle=auto;strokeColor=#CCCCCC;fontSize=42;fontColor=#FF3333;fillColor=default;" vertex="1" parent="1">
          <mxGeometry x="240" y="200" width="80" height="80" as="geometry" />
        </mxCell>
        <mxCell id="M2AzcLImMA2G3Drh93Wu-56" value="" style="whiteSpace=wrap;html=1;aspect=fixed;fillStyle=auto;strokeColor=#CCCCCC;fontSize=42;fontColor=#FF3333;fillColor=default;" vertex="1" parent="1">
          <mxGeometry x="320" y="120" width="80" height="80" as="geometry" />
        </mxCell>
        <mxCell id="M2AzcLImMA2G3Drh93Wu-54" value="" style="whiteSpace=wrap;html=1;aspect=fixed;fillStyle=auto;strokeColor=#CCCCCC;fontSize=42;fontColor=#FF3333;fillColor=default;" vertex="1" parent="1">
          <mxGeometry x="160" y="120" width="80" height="80" as="geometry" />
        </mxCell>
        <mxCell id="M2AzcLImMA2G3Drh93Wu-29" value="" style="whiteSpace=wrap;html=1;aspect=fixed;fontSize=20;fillColor=#cdeb8b;strokeColor=#97D077;fillStyle=auto;" vertex="1" parent="1">
          <mxGeometry x="320" y="360" width="80" height="80" as="geometry" />
        </mxCell>
        <mxCell id="M2AzcLImMA2G3Drh93Wu-28" value="" style="whiteSpace=wrap;html=1;aspect=fixed;fontSize=20;fillColor=#cdeb8b;strokeColor=#97D077;fillStyle=auto;" vertex="1" parent="1">
          <mxGeometry x="240" y="360" width="80" height="80" as="geometry" />
        </mxCell>
        <mxCell id="M2AzcLImMA2G3Drh93Wu-27" value="" style="whiteSpace=wrap;html=1;aspect=fixed;fontSize=20;fillColor=#cdeb8b;strokeColor=#97D077;fillStyle=auto;" vertex="1" parent="1">
          <mxGeometry x="160" y="200" width="80" height="80" as="geometry" />
        </mxCell>
        <mxCell id="M2AzcLImMA2G3Drh93Wu-26" value="" style="whiteSpace=wrap;html=1;aspect=fixed;fontSize=20;fillColor=#cdeb8b;strokeColor=#97D077;fillStyle=auto;" vertex="1" parent="1">
          <mxGeometry x="160" y="280" width="80" height="80" as="geometry" />
        </mxCell>
        <mxCell id="M2AzcLImMA2G3Drh93Wu-25" value="" style="whiteSpace=wrap;html=1;aspect=fixed;fontSize=20;fillColor=#cdeb8b;strokeColor=#97D077;fillStyle=auto;" vertex="1" parent="1">
          <mxGeometry x="160" y="360" width="80" height="80" as="geometry" />
        </mxCell>
        <mxCell id="M2AzcLImMA2G3Drh93Wu-1" value="" style="endArrow=classic;html=1;rounded=0;strokeWidth=2;" edge="1" parent="1">
          <mxGeometry width="50" height="50" relative="1" as="geometry">
            <mxPoint x="140" y="440" as="sourcePoint" />
            <mxPoint x="680" y="440" as="targetPoint" />
          </mxGeometry>
        </mxCell>
        <mxCell id="M2AzcLImMA2G3Drh93Wu-2" value="" style="endArrow=classic;html=1;rounded=0;strokeWidth=2;" edge="1" parent="1">
          <mxGeometry width="50" height="50" relative="1" as="geometry">
            <mxPoint x="160" y="460" as="sourcePoint" />
            <mxPoint x="160" y="80" as="targetPoint" />
          </mxGeometry>
        </mxCell>
        <mxCell id="M2AzcLImMA2G3Drh93Wu-3" value="ProbabilitÃ©" style="text;html=1;strokeColor=none;fillColor=none;align=center;verticalAlign=middle;whiteSpace=wrap;rounded=0;fontSize=20;rotation=0;" vertex="1" parent="1">
          <mxGeometry x="10" y="60" width="150" height="30" as="geometry" />
        </mxCell>
        <mxCell id="M2AzcLImMA2G3Drh93Wu-4" value="Impact" style="text;html=1;strokeColor=none;fillColor=none;align=center;verticalAlign=middle;whiteSpace=wrap;rounded=0;fontSize=20;rotation=0;" vertex="1" parent="1">
          <mxGeometry x="660" y="440" width="150" height="30" as="geometry" />
        </mxCell>
        <mxCell id="M2AzcLImMA2G3Drh93Wu-5" value="" style="endArrow=none;html=1;rounded=0;strokeWidth=2;fontSize=20;" edge="1" parent="1">
          <mxGeometry width="50" height="50" relative="1" as="geometry">
            <mxPoint x="240" y="460" as="sourcePoint" />
            <mxPoint x="240" y="440" as="targetPoint" />
          </mxGeometry>
        </mxCell>
        <mxCell id="M2AzcLImMA2G3Drh93Wu-6" value="" style="endArrow=none;html=1;rounded=0;strokeWidth=2;fontSize=20;" edge="1" parent="1">
          <mxGeometry width="50" height="50" relative="1" as="geometry">
            <mxPoint x="140" y="280" as="sourcePoint" />
            <mxPoint x="160" y="280" as="targetPoint" />
          </mxGeometry>
        </mxCell>
        <mxCell id="M2AzcLImMA2G3Drh93Wu-7" value="" style="endArrow=none;html=1;rounded=0;strokeWidth=2;fontSize=20;" edge="1" parent="1">
          <mxGeometry width="50" height="50" relative="1" as="geometry">
            <mxPoint x="141" y="121" as="sourcePoint" />
            <mxPoint x="161" y="121" as="targetPoint" />
          </mxGeometry>
        </mxCell>
        <mxCell id="M2AzcLImMA2G3Drh93Wu-8" value="" style="endArrow=none;html=1;rounded=0;strokeWidth=2;fontSize=20;" edge="1" parent="1">
          <mxGeometry width="50" height="50" relative="1" as="geometry">
            <mxPoint x="140" y="201" as="sourcePoint" />
            <mxPoint x="160" y="201" as="targetPoint" />
          </mxGeometry>
        </mxCell>
        <mxCell id="M2AzcLImMA2G3Drh93Wu-9" value="" style="endArrow=none;html=1;rounded=0;strokeWidth=2;fontSize=20;" edge="1" parent="1">
          <mxGeometry width="50" height="50" relative="1" as="geometry">
            <mxPoint x="160" y="360" as="sourcePoint" />
            <mxPoint x="140" y="360" as="targetPoint" />
          </mxGeometry>
        </mxCell>
        <mxCell id="M2AzcLImMA2G3Drh93Wu-10" value="" style="endArrow=none;html=1;rounded=0;strokeWidth=2;fontSize=20;" edge="1" parent="1">
          <mxGeometry width="50" height="50" relative="1" as="geometry">
            <mxPoint x="320" y="460" as="sourcePoint" />
            <mxPoint x="320" y="440" as="targetPoint" />
          </mxGeometry>
        </mxCell>
        <mxCell id="M2AzcLImMA2G3Drh93Wu-11" value="" style="endArrow=none;html=1;rounded=0;strokeWidth=2;fontSize=20;" edge="1" parent="1">
          <mxGeometry width="50" height="50" relative="1" as="geometry">
            <mxPoint x="400" y="460" as="sourcePoint" />
            <mxPoint x="400" y="440" as="targetPoint" />
          </mxGeometry>
        </mxCell>
        <mxCell id="M2AzcLImMA2G3Drh93Wu-12" value="" style="endArrow=none;html=1;rounded=0;strokeWidth=2;fontSize=20;" edge="1" parent="1">
          <mxGeometry width="50" height="50" relative="1" as="geometry">
            <mxPoint x="480" y="460" as="sourcePoint" />
            <mxPoint x="480" y="440" as="targetPoint" />
          </mxGeometry>
        </mxCell>
        <mxCell id="M2AzcLImMA2G3Drh93Wu-13" value="" style="endArrow=none;html=1;rounded=0;strokeWidth=2;fontSize=20;" edge="1" parent="1">
          <mxGeometry width="50" height="50" relative="1" as="geometry">
            <mxPoint x="560" y="460" as="sourcePoint" />
            <mxPoint x="560" y="440" as="targetPoint" />
          </mxGeometry>
        </mxCell>
        <mxCell id="M2AzcLImMA2G3Drh93Wu-14" value="" style="endArrow=none;html=1;rounded=0;strokeWidth=2;fontSize=20;" edge="1" parent="1">
          <mxGeometry width="50" height="50" relative="1" as="geometry">
            <mxPoint x="640" y="460" as="sourcePoint" />
            <mxPoint x="640" y="440" as="targetPoint" />
          </mxGeometry>
        </mxCell>
        <mxCell id="M2AzcLImMA2G3Drh93Wu-15" value="1" style="text;html=1;align=center;verticalAlign=middle;resizable=0;points=[];autosize=1;strokeColor=none;fillColor=none;fontSize=20;" vertex="1" parent="1">
          <mxGeometry x="190" y="450" width="30" height="40" as="geometry" />
        </mxCell>
        <mxCell id="M2AzcLImMA2G3Drh93Wu-16" value="2" style="text;html=1;align=center;verticalAlign=middle;resizable=0;points=[];autosize=1;strokeColor=none;fillColor=none;fontSize=20;" vertex="1" parent="1">
          <mxGeometry x="265" y="450" width="30" height="40" as="geometry" />
        </mxCell>
        <mxCell id="M2AzcLImMA2G3Drh93Wu-17" value="3" style="text;html=1;align=center;verticalAlign=middle;resizable=0;points=[];autosize=1;strokeColor=none;fillColor=none;fontSize=20;" vertex="1" parent="1">
          <mxGeometry x="345" y="450" width="30" height="40" as="geometry" />
        </mxCell>
        <mxCell id="M2AzcLImMA2G3Drh93Wu-18" value="4" style="text;html=1;align=center;verticalAlign=middle;resizable=0;points=[];autosize=1;strokeColor=none;fillColor=none;fontSize=20;" vertex="1" parent="1">
          <mxGeometry x="430" y="450" width="30" height="40" as="geometry" />
        </mxCell>
        <mxCell id="M2AzcLImMA2G3Drh93Wu-19" value="5" style="text;html=1;align=center;verticalAlign=middle;resizable=0;points=[];autosize=1;strokeColor=none;fillColor=none;fontSize=20;" vertex="1" parent="1">
          <mxGeometry x="510" y="450" width="30" height="40" as="geometry" />
        </mxCell>
        <mxCell id="M2AzcLImMA2G3Drh93Wu-20" value="6" style="text;html=1;align=center;verticalAlign=middle;resizable=0;points=[];autosize=1;strokeColor=none;fillColor=none;fontSize=20;" vertex="1" parent="1">
          <mxGeometry x="590" y="450" width="30" height="40" as="geometry" />
        </mxCell>
        <mxCell id="M2AzcLImMA2G3Drh93Wu-21" value="1" style="text;html=1;align=center;verticalAlign=middle;resizable=0;points=[];autosize=1;strokeColor=none;fillColor=none;fontSize=20;" vertex="1" parent="1">
          <mxGeometry x="100" y="380" width="30" height="40" as="geometry" />
        </mxCell>
        <mxCell id="M2AzcLImMA2G3Drh93Wu-22" value="2" style="text;html=1;align=center;verticalAlign=middle;resizable=0;points=[];autosize=1;strokeColor=none;fillColor=none;fontSize=20;" vertex="1" parent="1">
          <mxGeometry x="100" y="300" width="30" height="40" as="geometry" />
        </mxCell>
        <mxCell id="M2AzcLImMA2G3Drh93Wu-23" value="3" style="text;html=1;align=center;verticalAlign=middle;resizable=0;points=[];autosize=1;strokeColor=none;fillColor=none;fontSize=20;" vertex="1" parent="1">
          <mxGeometry x="100" y="220" width="30" height="40" as="geometry" />
        </mxCell>
        <mxCell id="M2AzcLImMA2G3Drh93Wu-24" value="4" style="text;html=1;align=center;verticalAlign=middle;resizable=0;points=[];autosize=1;strokeColor=none;fillColor=none;fontSize=20;" vertex="1" parent="1">
          <mxGeometry x="100" y="140" width="30" height="40" as="geometry" />
        </mxCell>
        <mxCell id="M2AzcLImMA2G3Drh93Wu-30" value="" style="whiteSpace=wrap;html=1;aspect=fixed;fontSize=20;fillColor=#cdeb8b;strokeColor=#97D077;fillStyle=auto;" vertex="1" parent="1">
          <mxGeometry x="240" y="280" width="80" height="80" as="geometry" />
        </mxCell>
        <mxCell id="M2AzcLImMA2G3Drh93Wu-31" value="" style="whiteSpace=wrap;html=1;aspect=fixed;fontSize=20;fillColor=#fad7ac;strokeColor=#FF9999;fillStyle=auto;" vertex="1" parent="1">
          <mxGeometry x="400" y="120" width="80" height="80" as="geometry" />
        </mxCell>
        <mxCell id="M2AzcLImMA2G3Drh93Wu-32" value="" style="whiteSpace=wrap;html=1;aspect=fixed;fontSize=20;fillColor=#fad7ac;strokeColor=#FF9999;fillStyle=auto;" vertex="1" parent="1">
          <mxGeometry x="480" y="120" width="80" height="80" as="geometry" />
        </mxCell>
        <mxCell id="M2AzcLImMA2G3Drh93Wu-33" value="" style="whiteSpace=wrap;html=1;aspect=fixed;fontSize=20;fillColor=#fad7ac;strokeColor=#FF9999;fillStyle=auto;" vertex="1" parent="1">
          <mxGeometry x="560" y="120" width="80" height="80" as="geometry" />
        </mxCell>
        <mxCell id="M2AzcLImMA2G3Drh93Wu-34" value="" style="whiteSpace=wrap;html=1;aspect=fixed;fontSize=20;fillColor=#fad7ac;strokeColor=#FF9999;fillStyle=auto;" vertex="1" parent="1">
          <mxGeometry x="480" y="200" width="80" height="80" as="geometry" />
        </mxCell>
        <mxCell id="M2AzcLImMA2G3Drh93Wu-35" value="" style="whiteSpace=wrap;html=1;aspect=fixed;fontSize=20;fillColor=#fad7ac;strokeColor=#FF9999;fillStyle=auto;" vertex="1" parent="1">
          <mxGeometry x="560" y="200" width="80" height="80" as="geometry" />
        </mxCell>
        <mxCell id="M2AzcLImMA2G3Drh93Wu-36" value="" style="whiteSpace=wrap;html=1;aspect=fixed;fontSize=20;fillColor=#fad7ac;strokeColor=#FF9999;fillStyle=auto;" vertex="1" parent="1">
          <mxGeometry x="560" y="280" width="80" height="80" as="geometry" />
        </mxCell>
        <mxCell id="M2AzcLImMA2G3Drh93Wu-37" value="" style="endArrow=none;html=1;rounded=0;strokeWidth=2;fontSize=20;strokeColor=#CCCCCC;entryX=1;entryY=0;entryDx=0;entryDy=0;" edge="1" parent="1" target="M2AzcLImMA2G3Drh93Wu-33">
          <mxGeometry width="50" height="50" relative="1" as="geometry">
            <mxPoint x="160" y="120" as="sourcePoint" />
            <mxPoint x="440" y="220" as="targetPoint" />
          </mxGeometry>
        </mxCell>
        <mxCell id="M2AzcLImMA2G3Drh93Wu-38" value="" style="endArrow=none;html=1;rounded=0;strokeWidth=2;fontSize=20;strokeColor=#CCCCCC;" edge="1" parent="1">
          <mxGeometry width="50" height="50" relative="1" as="geometry">
            <mxPoint x="640" y="120" as="sourcePoint" />
            <mxPoint x="640" y="440" as="targetPoint" />
          </mxGeometry>
        </mxCell>
        <mxCell id="M2AzcLImMA2G3Drh93Wu-39" value="" style="endArrow=none;html=1;rounded=0;strokeColor=#4D4D4D;strokeWidth=2;fontSize=20;entryX=0;entryY=0;entryDx=0;entryDy=0;exitX=0;exitY=1;exitDx=0;exitDy=0;" edge="1" parent="1" source="M2AzcLImMA2G3Drh93Wu-31" target="M2AzcLImMA2G3Drh93Wu-31">
          <mxGeometry width="50" height="50" relative="1" as="geometry">
            <mxPoint x="390" y="270" as="sourcePoint" />
            <mxPoint x="440" y="220" as="targetPoint" />
          </mxGeometry>
        </mxCell>
        <mxCell id="M2AzcLImMA2G3Drh93Wu-40" value="" style="endArrow=none;html=1;rounded=0;strokeColor=#4D4D4D;strokeWidth=2;fontSize=20;entryX=0;entryY=0;entryDx=0;entryDy=0;exitX=0;exitY=1;exitDx=0;exitDy=0;" edge="1" parent="1">
          <mxGeometry width="50" height="50" relative="1" as="geometry">
            <mxPoint x="480" y="280" as="sourcePoint" />
            <mxPoint x="480" y="200" as="targetPoint" />
          </mxGeometry>
        </mxCell>
        <mxCell id="M2AzcLImMA2G3Drh93Wu-41" value="" style="endArrow=none;html=1;rounded=0;strokeColor=#4D4D4D;strokeWidth=2;fontSize=20;entryX=0;entryY=0;entryDx=0;entryDy=0;exitX=0;exitY=1;exitDx=0;exitDy=0;" edge="1" parent="1">
          <mxGeometry width="50" height="50" relative="1" as="geometry">
            <mxPoint x="559" y="360" as="sourcePoint" />
            <mxPoint x="559" y="280" as="targetPoint" />
          </mxGeometry>
        </mxCell>
        <mxCell id="M2AzcLImMA2G3Drh93Wu-42" value="" style="endArrow=none;html=1;rounded=0;strokeColor=#4D4D4D;strokeWidth=2;fontSize=20;entryX=0;entryY=0;entryDx=0;entryDy=0;exitX=0;exitY=1;exitDx=0;exitDy=0;" edge="1" parent="1">
          <mxGeometry width="50" height="50" relative="1" as="geometry">
            <mxPoint x="240" y="280" as="sourcePoint" />
            <mxPoint x="240" y="200" as="targetPoint" />
          </mxGeometry>
        </mxCell>
        <mxCell id="M2AzcLImMA2G3Drh93Wu-43" value="" style="endArrow=none;html=1;rounded=0;strokeColor=#4D4D4D;strokeWidth=2;fontSize=20;entryX=0;entryY=0;entryDx=0;entryDy=0;exitX=0;exitY=1;exitDx=0;exitDy=0;" edge="1" parent="1">
          <mxGeometry width="50" height="50" relative="1" as="geometry">
            <mxPoint x="320" y="360" as="sourcePoint" />
            <mxPoint x="320" y="280" as="targetPoint" />
          </mxGeometry>
        </mxCell>
        <mxCell id="M2AzcLImMA2G3Drh93Wu-44" value="" style="endArrow=none;html=1;rounded=0;strokeColor=#4D4D4D;strokeWidth=2;fontSize=20;entryX=0;entryY=0;entryDx=0;entryDy=0;exitX=0;exitY=1;exitDx=0;exitDy=0;" edge="1" parent="1">
          <mxGeometry width="50" height="50" relative="1" as="geometry">
            <mxPoint x="400" y="440" as="sourcePoint" />
            <mxPoint x="400" y="360" as="targetPoint" />
          </mxGeometry>
        </mxCell>
        <mxCell id="M2AzcLImMA2G3Drh93Wu-45" value="" style="endArrow=none;html=1;rounded=0;strokeColor=#4D4D4D;strokeWidth=2;fontSize=20;" edge="1" parent="1">
          <mxGeometry width="50" height="50" relative="1" as="geometry">
            <mxPoint x="240" y="200" as="sourcePoint" />
            <mxPoint x="160" y="200" as="targetPoint" />
          </mxGeometry>
        </mxCell>
        <mxCell id="M2AzcLImMA2G3Drh93Wu-46" value="" style="endArrow=none;html=1;rounded=0;strokeColor=#4D4D4D;strokeWidth=2;fontSize=20;" edge="1" parent="1">
          <mxGeometry width="50" height="50" relative="1" as="geometry">
            <mxPoint x="320" y="279" as="sourcePoint" />
            <mxPoint x="240" y="279" as="targetPoint" />
          </mxGeometry>
        </mxCell>
        <mxCell id="M2AzcLImMA2G3Drh93Wu-47" value="" style="endArrow=none;html=1;rounded=0;strokeColor=#4D4D4D;strokeWidth=2;fontSize=20;" edge="1" parent="1">
          <mxGeometry width="50" height="50" relative="1" as="geometry">
            <mxPoint x="400" y="360" as="sourcePoint" />
            <mxPoint x="320" y="360" as="targetPoint" />
          </mxGeometry>
        </mxCell>
        <mxCell id="M2AzcLImMA2G3Drh93Wu-48" value="" style="endArrow=none;html=1;rounded=0;strokeColor=#4D4D4D;strokeWidth=2;fontSize=20;" edge="1" parent="1">
          <mxGeometry width="50" height="50" relative="1" as="geometry">
            <mxPoint x="480" y="200" as="sourcePoint" />
            <mxPoint x="400" y="200" as="targetPoint" />
          </mxGeometry>
        </mxCell>
        <mxCell id="M2AzcLImMA2G3Drh93Wu-49" value="" style="endArrow=none;html=1;rounded=0;strokeColor=#4D4D4D;strokeWidth=2;fontSize=20;" edge="1" parent="1">
          <mxGeometry width="50" height="50" relative="1" as="geometry">
            <mxPoint x="560" y="280" as="sourcePoint" />
            <mxPoint x="480" y="280" as="targetPoint" />
          </mxGeometry>
        </mxCell>
        <mxCell id="M2AzcLImMA2G3Drh93Wu-50" value="" style="endArrow=none;html=1;rounded=0;strokeColor=#4D4D4D;strokeWidth=2;fontSize=20;" edge="1" parent="1">
          <mxGeometry width="50" height="50" relative="1" as="geometry">
            <mxPoint x="640" y="359" as="sourcePoint" />
            <mxPoint x="560" y="359" as="targetPoint" />
          </mxGeometry>
        </mxCell>
        <mxCell id="M2AzcLImMA2G3Drh93Wu-51" value="&lt;font style=&quot;font-size: 42px;&quot; color=&quot;#247D27&quot;&gt;&lt;b&gt;1&lt;/b&gt;&lt;/font&gt;" style="text;html=1;strokeColor=none;fillColor=none;align=center;verticalAlign=middle;whiteSpace=wrap;rounded=0;fontSize=20;" vertex="1" parent="1">
          <mxGeometry x="220" y="340" width="60" height="30" as="geometry" />
        </mxCell>
        <mxCell id="M2AzcLImMA2G3Drh93Wu-52" value="&lt;font style=&quot;font-size: 42px;&quot;&gt;&lt;b&gt;2&lt;/b&gt;&lt;/font&gt;" style="text;html=1;strokeColor=none;fillColor=none;align=center;verticalAlign=middle;whiteSpace=wrap;rounded=0;fontSize=20;fontColor=#4D4D4D;" vertex="1" parent="1">
          <mxGeometry x="370" y="260" width="60" height="30" as="geometry" />
        </mxCell>
        <mxCell id="M2AzcLImMA2G3Drh93Wu-53" value="&lt;font style=&quot;font-size: 42px;&quot; color=&quot;#FF3333&quot;&gt;&lt;b&gt;3&lt;/b&gt;&lt;/font&gt;" style="text;html=1;strokeColor=none;fillColor=none;align=center;verticalAlign=middle;whiteSpace=wrap;rounded=0;fontSize=20;fontColor=#4D4D4D;" vertex="1" parent="1">
          <mxGeometry x="530" y="180" width="60" height="30" as="geometry" />
        </mxCell>
        <mxCell id="M2AzcLImMA2G3Drh93Wu-55" value="" style="whiteSpace=wrap;html=1;aspect=fixed;fillStyle=auto;strokeColor=#CCCCCC;fontSize=42;fontColor=#FF3333;fillColor=default;" vertex="1" parent="1">
          <mxGeometry x="240" y="120" width="80" height="80" as="geometry" />
        </mxCell>
      </root>
    </mxGraphModel>
  </diagram>
</mxfile>
